<?xml version="1.0" encoding="utf-8"?>
<!-- Generator: Adobe Illustrator 19.0.1, SVG Export Plug-In . SVG Version: 6.00 Build 0)  -->
<svg version="1.1" id="Layer_1" xmlns="http://www.w3.org/2000/svg" xmlns:xlink="http://www.w3.org/1999/xlink" x="0px" y="0px"
	 width="512px" height="202px" viewBox="0 0 512 202" style="enable-background:new 0 0 512 202;" xml:space="preserve">
<style type="text/css">
	.st0{fill:#FFFFFF;}
</style>
<g>
	<path class="st0" d="M259.4,79.5c-10.2-5.1-23.9-12-23.9-25.4c0-17.1,15.3-22.3,30.1-22.3c13.4,0,20.5,2.3,36.8,8.7l4.5-29.5
		c-15-5.3-29.9-7.5-42.4-7.5c-34.4,0-62.1,18.2-62.1,53.1c0,36.9,29.9,46.1,56,59.3c11.8,6,23.9,13.4,23.9,28.7
		c0,19.7-17,27.7-34.1,27.9c-13.1,0.2-28.6-5.2-40.7-10.1l-3.2,30c14.2,4.6,27.3,8,40.7,8.5c37.7,1.2,70.5-16.2,70.5-57.9
		C315.4,104.6,287.1,93.3,259.4,79.5z"/>
	<path class="st0" d="M92.2,120.3H128v49.4c-6.8,1.8-16.2,2.6-27.3,2.6c-37.3,0-67.4-27-67.6-70.3C32.9,61.7,60.6,31.7,102,31.7
		c23.6,0,37.2,4.2,53.2,14.6l2.6-32.9c-17.4-6-29.7-10.1-57.2-10.1c-58,0-100.7,39.1-100.7,97.8c0,60.5,40.3,99.4,100.5,99.4
		c29.3,0,47.7-4.8,59.7-9v-99H92.2L92.2,120.3L92.2,120.3z"/>
	<polygon class="st0" points="422.2,67.2 436,101 468,101 422.2,-0.8 376.5,101 408.4,101 	"/>
	<polygon class="st0" points="468.5,102.2 445.8,123.5 477.5,197.3 511,197.3 	"/>
	<polygon class="st0" points="381.9,161.8 398.7,123.5 376,102.3 333.5,197.3 366.1,197.3 445.4,158.5 422.2,140.7 	"/>
</g>
</svg>
